
<svg xmlns="http://www.w3.org/2000/svg" version="1.1" xmlns:xlink="http://www.w3.org/1999/xlink" preserveAspectRatio="none" x="0px" y="0px" width="300px" height="300px" viewBox="0 0 300 300">
<defs>
<linearGradient id="Gradient_1" gradientUnits="userSpaceOnUse" x1="79.4875" y1="232.77499999999998" x2="81.91250000000001" y2="140.125" spreadMethod="pad">
<stop  offset="0%" stop-color="#BC965E"/>

<stop  offset="100%" stop-color="#D5B380"/>
</linearGradient>

<linearGradient id="Gradient_2" gradientUnits="userSpaceOnUse" x1="174.75" y1="251.4" x2="248.64999999999998" y2="170.29999999999998" spreadMethod="pad">
<stop  offset="0%" stop-color="#BC965E"/>

<stop  offset="100%" stop-color="#D5B380"/>
</linearGradient>

<linearGradient id="Gradient_3" gradientUnits="userSpaceOnUse" x1="125.3625" y1="127.7625" x2="95.6375" y2="73.1375" spreadMethod="pad">
<stop  offset="0%" stop-color="#BC965E"/>

<stop  offset="100%" stop-color="#D5B380"/>
</linearGradient>

<linearGradient id="Gradient_4" gradientUnits="userSpaceOnUse" x1="96.8375" y1="182.75" x2="61.762499999999996" y2="101.44999999999999" spreadMethod="pad">
<stop  offset="0%" stop-color="#BC965E"/>

<stop  offset="100%" stop-color="#D5B380"/>
</linearGradient>

<linearGradient id="Gradient_5" gradientUnits="userSpaceOnUse" x1="212.675" y1="113.11250000000001" x2="186.825" y2="77.2875" spreadMethod="pad">
<stop  offset="0%" stop-color="#BC965E"/>

<stop  offset="100%" stop-color="#D5B380"/>
</linearGradient>

<linearGradient id="Gradient_6" gradientUnits="userSpaceOnUse" x1="155.1375" y1="188.2125" x2="264.3625" y2="116.2875" spreadMethod="pad">
<stop  offset="0%" stop-color="#BC965E"/>

<stop  offset="100%" stop-color="#D5B380"/>
</linearGradient>

<g id="Layer0_0_FILL">
<path fill="url(#Gradient_1)" stroke="none" d="
M 137.45 269.95
L 137.45 202.15 22.7 153.15 22.7 202.15 137.45 269.95 Z"/>

<path fill="url(#Gradient_2)" stroke="none" d="
M 137.45 202.15
L 137.45 269.95 278.2 228.25 276.3 174.05 137.45 202.15 Z"/>

<path fill="url(#Gradient_3)" stroke="none" d="
M 85.3 70.2
L 21.75 83.45 137.45 134.35 200 121.9 85.3 70.2
M 139.7 125.45
L 100.95 108.3 137.45 97.85 179.15 115.6 139.7 125.45 Z"/>

<path fill="#F7F7F7" stroke="none" d="
M 100.95 108.3
L 139.7 125.45 179.15 115.6 137.45 97.85 100.95 108.3 Z"/>

<path fill="url(#Gradient_4)" stroke="none" d="
M 21.75 83.45
L 22.7 153.15 137.45 202.15 137.45 134.35 21.75 83.45 Z"/>

<path fill="url(#Gradient_5)" stroke="none" d="
M 223.75 116.65
L 278.2 103.1 158.3 56.15 106.15 66.2 223.75 116.65 Z"/>

<path fill="url(#Gradient_6)" stroke="none" d="
M 223.75 116.65
L 223.75 142 200 148 200 121.9 137.45 134.35 137.45 202.15 276.3 174.05 278.2 103.1 223.75 116.65 Z"/>

<path fill="#DDC09A" stroke="none" d="
M 223.75 142
L 223.75 116.65 106.15 66.2 85.3 70.2 200 121.9 200 148 223.75 142 Z"/>
</g>
</defs>

<g transform="matrix( 1, 0, 0, 1, 0,0) ">
<use xlink:href="#Layer0_0_FILL"/>
</g>
</svg>
