
<svg xmlns="http://www.w3.org/2000/svg" version="1.1" xmlns:xlink="http://www.w3.org/1999/xlink" preserveAspectRatio="none" x="0px" y="0px" width="720px" height="1280px" viewBox="0 0 720 1280">
<defs>
<g id="Sembol_2_0_Layer0_0_FILL">
<path fill="#8EBED7" stroke="none" d="
M 580 50
Q 577.05 1.9 530 0
L 50 0
Q 7.3 3.05 0 50
L 0 910 41.3 910.05 41.3 110 538.7 110 538.7 910 580 910 580 50
M 343.95 47.25
Q 344.35 47.25 344.7 47.25 347.95 47.25 350.25 48.4 352.55 49.5 352.55 51.1 352.55 52.75 350.25 53.85 347.95 55 344.7 55 344.35 55 343.95 55
L 224.9 54.95
Q 222.1 54.85 220 53.85 217.75 52.7 217.75 51.1 217.75 49.5 220 48.35 222.1 47.35 224.9 47.25
L 343.95 47.25
M 165 50
Q 165 52.05 163.5 53.5 162.05 55 160 55 157.95 55 156.45 53.5 155 52.05 155 50 155 47.95 156.45 46.45 157.95 45 160 45 162.05 45 163.5 46.45 165 47.95 165 50
M 130 40
Q 134.15 40 137.05 42.9 140 45.85 140 50 140 54.15 137.05 57.05 134.15 60 130 60 125.85 60 122.9 57.05 120 54.15 120 50 120 45.85 122.9 42.9 125.85 40 130 40 Z"/>

<path fill="#5F7E8F" stroke="none" d="
M 137.05 42.9
Q 134.15 40 130 40 125.85 40 122.9 42.9 120 45.85 120 50 120 54.15 122.9 57.05 125.85 60 130 60 134.15 60 137.05 57.05 140 54.15 140 50 140 45.85 137.05 42.9
M 163.5 53.5
Q 165 52.05 165 50 165 47.95 163.5 46.45 162.05 45 160 45 157.95 45 156.45 46.45 155 47.95 155 50 155 52.05 156.45 53.5 157.95 55 160 55 162.05 55 163.5 53.5
M 344.7 47.25
Q 344.35 47.25 343.95 47.25
L 224.9 47.25
Q 222.1 47.35 220 48.35 217.75 49.5 217.75 51.1 217.75 52.7 220 53.85 222.1 54.85 224.9 54.95
L 343.95 55
Q 344.35 55 344.7 55 347.95 55 350.25 53.85 352.55 52.75 352.55 51.1 352.55 49.5 350.25 48.4 347.95 47.25 344.7 47.25 Z"/>
</g>

<g id="Sembol_1_0_Layer0_0_FILL">
<path fill="#83AFC6" stroke="none" d="
M 30 340
L 30 380 70 380 70 340 30 340
M 350 30
L 350 70 390 70 390 30 350 30 Z"/>
</g>

<g id="Layer0_0_MEMBER_0_MEMBER_0_FILL">
<path fill="#99C4E4" stroke="none" d="
M 321.2 292
Q 320.65 291.25 319.75 290.95 318.85 290.7 318 290.95 317.1 291.2 316.5 291.9
L 295.35 319.6
Q 294.45 320.8 293.05 321.5 291.65 322.15 290.15 322.15 288.35 322.15 286.85 321.3
L 189.9 265.95
Q 188.4 265.1 187 265.95 185.55 266.75 185.55 268.45
L 185.55 311.65
Q 185.55 313.3 187 314.2
L 317.35 389.6
Q 318.1 390 318.8 390 319.55 390 320.3 389.6 321.75 388.8 321.75 387.1
L 321.75 293.7
Q 321.75 292.75 321.2 292 Z"/>
</g>

<g id="Layer0_0_MEMBER_0_MEMBER_1_FILL">
<path fill="#99C4E4" stroke="none" d="
M 471.1 268.45
Q 471.1 266.75 469.65 265.95 468.2 265.1 466.75 265.95
L 369.75 321.3
Q 368.3 322.15 366.55 322.15 365 322.15 363.65 321.5 362.2 320.8 361.3 319.6
L 340.15 291.9
Q 339.6 291.2 338.65 290.95 337.75 290.65 336.9 290.95 336 291.25 335.45 292 334.9 292.8 334.9 293.7
L 334.9 387.1
Q 334.9 388.75 336.35 389.6 337.1 390 337.8 390 338.55 390 339.25 389.6
L 469.65 314.15
Q 471.1 313.35 471.1 311.65
L 471.1 268.45 Z"/>
</g>

<g id="Layer0_0_MEMBER_0_MEMBER_2_FILL">
<path fill="#99C4E4" stroke="none" d="
M 508.1 147.95
Q 507.85 146.45 506.5 145.8
L 375.25 83.9
Q 374.4 83.5 373.6 83.65 372.7 83.75 372.1 84.35
L 334.55 117.55 329.65 114.95
Q 329.05 114.6 328.35 114.6 327.6 114.6 326.95 114.95
L 322.05 117.55 284.55 84.35
Q 283.9 83.75 283.05 83.65 282.2 83.5 281.4 83.9
L 150.15 145.8
Q 148.8 146.4 148.5 147.95 148.4 149.55 149.35 150.5
L 188.55 188.35 182.4 191.65
Q 181.7 192 181.2 192.75
L 159.9 230.35
Q 159.35 231.4 159.65 232.55 159.95 233.7 161 234.3
L 286.2 305.75
Q 287.1 306.3 288.2 306.1 289.25 305.85 289.9 305
L 316.35 270.45
Q 317.15 269.4 316.9 268.1 316.65 266.8 315.45 266.15
L 191.25 197.65 323.6 127.45 323.6 213.8 291.1 232.65
Q 289.65 233.5 289.65 235.15 289.7 236.9 291.15 237.7
L 326.9 257.4
Q 328.35 258.15 329.7 257.4
L 365.5 237.7
Q 367 236.85 367 235.15 367 233.5 365.55 232.65
L 333.05 213.8 333.05 127.45 465.4 197.65 341.15 266.15
Q 339.95 266.8 339.7 268.1 339.45 269.35 340.25 270.45
L 366.7 305
Q 367.55 306.1 369 306.1 369.8 306.1 370.45 305.75
L 495.65 234.3
Q 496.65 233.7 497 232.55 497.3 231.45 496.7 230.35
L 475.45 192.75
Q 474.95 192 474.3 191.65
L 468.1 188.35 507.3 150.5
Q 508.35 149.4 508.1 147.95 Z"/>
</g>

<g id="Layer0_1_MEMBER_0_MEMBER_0_FILL">
<path fill="#99C4E4" stroke="none" d="
M 321.2 292
Q 320.65 291.25 319.75 290.95 318.85 290.7 318 290.95 317.1 291.2 316.5 291.9
L 295.35 319.6
Q 294.45 320.8 293.05 321.5 291.65 322.15 290.15 322.15 288.35 322.15 286.85 321.3
L 189.9 265.95
Q 188.4 265.1 187 265.95 185.55 266.75 185.55 268.45
L 185.55 311.65
Q 185.55 313.3 187 314.2
L 317.35 389.6
Q 318.1 390 318.8 390 319.55 390 320.3 389.6 321.75 388.8 321.75 387.1
L 321.75 293.7
Q 321.75 292.75 321.2 292 Z"/>
</g>

<g id="Layer0_1_MEMBER_0_MEMBER_1_FILL">
<path fill="#99C4E4" stroke="none" d="
M 471.1 268.45
Q 471.1 266.75 469.65 265.95 468.2 265.1 466.75 265.95
L 369.75 321.3
Q 368.3 322.15 366.55 322.15 365 322.15 363.65 321.5 362.2 320.8 361.3 319.6
L 340.15 291.9
Q 339.6 291.2 338.65 290.95 337.75 290.65 336.9 290.95 336 291.25 335.45 292 334.9 292.8 334.9 293.7
L 334.9 387.1
Q 334.9 388.75 336.35 389.6 337.1 390 337.8 390 338.55 390 339.25 389.6
L 469.65 314.15
Q 471.1 313.35 471.1 311.65
L 471.1 268.45 Z"/>
</g>

<g id="Layer0_1_MEMBER_0_MEMBER_2_FILL">
<path fill="#99C4E4" stroke="none" d="
M 508.1 147.95
Q 507.85 146.45 506.5 145.8
L 375.25 83.9
Q 374.4 83.5 373.6 83.65 372.7 83.75 372.1 84.35
L 334.55 117.55 329.65 114.95
Q 329.05 114.6 328.35 114.6 327.6 114.6 326.95 114.95
L 322.05 117.55 284.55 84.35
Q 283.9 83.75 283.05 83.65 282.2 83.5 281.4 83.9
L 150.15 145.8
Q 148.8 146.4 148.5 147.95 148.4 149.55 149.35 150.5
L 188.55 188.35 182.4 191.65
Q 181.7 192 181.2 192.75
L 159.9 230.35
Q 159.35 231.4 159.65 232.55 159.95 233.7 161 234.3
L 286.2 305.75
Q 287.1 306.3 288.2 306.1 289.25 305.85 289.9 305
L 316.35 270.45
Q 317.15 269.4 316.9 268.1 316.65 266.8 315.45 266.15
L 191.25 197.65 323.6 127.45 323.6 213.8 291.1 232.65
Q 289.65 233.5 289.65 235.15 289.7 236.9 291.15 237.7
L 326.9 257.4
Q 328.35 258.15 329.7 257.4
L 365.5 237.7
Q 367 236.85 367 235.15 367 233.5 365.55 232.65
L 333.05 213.8 333.05 127.45 465.4 197.65 341.15 266.15
Q 339.95 266.8 339.7 268.1 339.45 269.35 340.25 270.45
L 366.7 305
Q 367.55 306.1 369 306.1 369.8 306.1 370.45 305.75
L 495.65 234.3
Q 496.65 233.7 497 232.55 497.3 231.45 496.7 230.35
L 475.45 192.75
Q 474.95 192 474.3 191.65
L 468.1 188.35 507.3 150.5
Q 508.35 149.4 508.1 147.95 Z"/>
</g>

<g id="Layer0_2_MEMBER_0_MEMBER_0_FILL">
<path fill="#99C4E4" stroke="none" d="
M 321.2 292
Q 320.65 291.25 319.75 290.95 318.85 290.7 318 290.95 317.1 291.2 316.5 291.9
L 295.35 319.6
Q 294.45 320.8 293.05 321.5 291.65 322.15 290.15 322.15 288.35 322.15 286.85 321.3
L 189.9 265.95
Q 188.4 265.1 187 265.95 185.55 266.75 185.55 268.45
L 185.55 311.65
Q 185.55 313.3 187 314.2
L 317.35 389.6
Q 318.1 390 318.8 390 319.55 390 320.3 389.6 321.75 388.8 321.75 387.1
L 321.75 293.7
Q 321.75 292.75 321.2 292 Z"/>
</g>

<g id="Layer0_2_MEMBER_0_MEMBER_1_FILL">
<path fill="#99C4E4" stroke="none" d="
M 471.1 268.45
Q 471.1 266.75 469.65 265.95 468.2 265.1 466.75 265.95
L 369.75 321.3
Q 368.3 322.15 366.55 322.15 365 322.15 363.65 321.5 362.2 320.8 361.3 319.6
L 340.15 291.9
Q 339.6 291.2 338.65 290.95 337.75 290.65 336.9 290.95 336 291.25 335.45 292 334.9 292.8 334.9 293.7
L 334.9 387.1
Q 334.9 388.75 336.35 389.6 337.1 390 337.8 390 338.55 390 339.25 389.6
L 469.65 314.15
Q 471.1 313.35 471.1 311.65
L 471.1 268.45 Z"/>
</g>

<g id="Layer0_2_MEMBER_0_MEMBER_2_FILL">
<path fill="#99C4E4" stroke="none" d="
M 508.1 147.95
Q 507.85 146.45 506.5 145.8
L 375.25 83.9
Q 374.4 83.5 373.6 83.65 372.7 83.75 372.1 84.35
L 334.55 117.55 329.65 114.95
Q 329.05 114.6 328.35 114.6 327.6 114.6 326.95 114.95
L 322.05 117.55 284.55 84.35
Q 283.9 83.75 283.05 83.65 282.2 83.5 281.4 83.9
L 150.15 145.8
Q 148.8 146.4 148.5 147.95 148.4 149.55 149.35 150.5
L 188.55 188.35 182.4 191.65
Q 181.7 192 181.2 192.75
L 159.9 230.35
Q 159.35 231.4 159.65 232.55 159.95 233.7 161 234.3
L 286.2 305.75
Q 287.1 306.3 288.2 306.1 289.25 305.85 289.9 305
L 316.35 270.45
Q 317.15 269.4 316.9 268.1 316.65 266.8 315.45 266.15
L 191.25 197.65 323.6 127.45 323.6 213.8 291.1 232.65
Q 289.65 233.5 289.65 235.15 289.7 236.9 291.15 237.7
L 326.9 257.4
Q 328.35 258.15 329.7 257.4
L 365.5 237.7
Q 367 236.85 367 235.15 367 233.5 365.55 232.65
L 333.05 213.8 333.05 127.45 465.4 197.65 341.15 266.15
Q 339.95 266.8 339.7 268.1 339.45 269.35 340.25 270.45
L 366.7 305
Q 367.55 306.1 369 306.1 369.8 306.1 370.45 305.75
L 495.65 234.3
Q 496.65 233.7 497 232.55 497.3 231.45 496.7 230.35
L 475.45 192.75
Q 474.95 192 474.3 191.65
L 468.1 188.35 507.3 150.5
Q 508.35 149.4 508.1 147.95 Z"/>
</g>

<g id="Layer0_3_MEMBER_0_MEMBER_0_FILL">
<path fill="#99C4E4" stroke="none" d="
M 321.2 292
Q 320.65 291.25 319.75 290.95 318.85 290.7 318 290.95 317.1 291.2 316.5 291.9
L 295.35 319.6
Q 294.45 320.8 293.05 321.5 291.65 322.15 290.15 322.15 288.35 322.15 286.85 321.3
L 189.9 265.95
Q 188.4 265.1 187 265.95 185.55 266.75 185.55 268.45
L 185.55 311.65
Q 185.55 313.3 187 314.2
L 317.35 389.6
Q 318.1 390 318.8 390 319.55 390 320.3 389.6 321.75 388.8 321.75 387.1
L 321.75 293.7
Q 321.75 292.75 321.2 292 Z"/>
</g>

<g id="Layer0_3_MEMBER_0_MEMBER_1_FILL">
<path fill="#99C4E4" stroke="none" d="
M 471.1 268.45
Q 471.1 266.75 469.65 265.95 468.2 265.1 466.75 265.95
L 369.75 321.3
Q 368.3 322.15 366.55 322.15 365 322.15 363.65 321.5 362.2 320.8 361.3 319.6
L 340.15 291.9
Q 339.6 291.2 338.65 290.95 337.75 290.65 336.9 290.95 336 291.25 335.45 292 334.9 292.8 334.9 293.7
L 334.9 387.1
Q 334.9 388.75 336.35 389.6 337.1 390 337.8 390 338.55 390 339.25 389.6
L 469.65 314.15
Q 471.1 313.35 471.1 311.65
L 471.1 268.45 Z"/>
</g>

<g id="Layer0_3_MEMBER_0_MEMBER_2_FILL">
<path fill="#99C4E4" stroke="none" d="
M 508.1 147.95
Q 507.85 146.45 506.5 145.8
L 375.25 83.9
Q 374.4 83.5 373.6 83.65 372.7 83.75 372.1 84.35
L 334.55 117.55 329.65 114.95
Q 329.05 114.6 328.35 114.6 327.6 114.6 326.95 114.95
L 322.05 117.55 284.55 84.35
Q 283.9 83.75 283.05 83.65 282.2 83.5 281.4 83.9
L 150.15 145.8
Q 148.8 146.4 148.5 147.95 148.4 149.55 149.35 150.5
L 188.55 188.35 182.4 191.65
Q 181.7 192 181.2 192.75
L 159.9 230.35
Q 159.35 231.4 159.65 232.55 159.95 233.7 161 234.3
L 286.2 305.75
Q 287.1 306.3 288.2 306.1 289.25 305.85 289.9 305
L 316.35 270.45
Q 317.15 269.4 316.9 268.1 316.65 266.8 315.45 266.15
L 191.25 197.65 323.6 127.45 323.6 213.8 291.1 232.65
Q 289.65 233.5 289.65 235.15 289.7 236.9 291.15 237.7
L 326.9 257.4
Q 328.35 258.15 329.7 257.4
L 365.5 237.7
Q 367 236.85 367 235.15 367 233.5 365.55 232.65
L 333.05 213.8 333.05 127.45 465.4 197.65 341.15 266.15
Q 339.95 266.8 339.7 268.1 339.45 269.35 340.25 270.45
L 366.7 305
Q 367.55 306.1 369 306.1 369.8 306.1 370.45 305.75
L 495.65 234.3
Q 496.65 233.7 497 232.55 497.3 231.45 496.7 230.35
L 475.45 192.75
Q 474.95 192 474.3 191.65
L 468.1 188.35 507.3 150.5
Q 508.35 149.4 508.1 147.95 Z"/>
</g>

<g id="Layer0_4_MEMBER_0_MEMBER_0_FILL">
<path fill="#99C4E4" stroke="none" d="
M 321.2 292
Q 320.65 291.25 319.75 290.95 318.85 290.7 318 290.95 317.1 291.2 316.5 291.9
L 295.35 319.6
Q 294.45 320.8 293.05 321.5 291.65 322.15 290.15 322.15 288.35 322.15 286.85 321.3
L 189.9 265.95
Q 188.4 265.1 187 265.95 185.55 266.75 185.55 268.45
L 185.55 311.65
Q 185.55 313.3 187 314.2
L 317.35 389.6
Q 318.1 390 318.8 390 319.55 390 320.3 389.6 321.75 388.8 321.75 387.1
L 321.75 293.7
Q 321.75 292.75 321.2 292 Z"/>
</g>

<g id="Layer0_4_MEMBER_0_MEMBER_1_FILL">
<path fill="#99C4E4" stroke="none" d="
M 471.1 268.45
Q 471.1 266.75 469.65 265.95 468.2 265.1 466.75 265.95
L 369.75 321.3
Q 368.3 322.15 366.55 322.15 365 322.15 363.65 321.5 362.2 320.8 361.3 319.6
L 340.15 291.9
Q 339.6 291.2 338.65 290.95 337.75 290.65 336.9 290.95 336 291.25 335.45 292 334.9 292.8 334.9 293.7
L 334.9 387.1
Q 334.9 388.75 336.35 389.6 337.1 390 337.8 390 338.55 390 339.25 389.6
L 469.65 314.15
Q 471.1 313.35 471.1 311.65
L 471.1 268.45 Z"/>
</g>

<g id="Layer0_4_MEMBER_0_MEMBER_2_FILL">
<path fill="#99C4E4" stroke="none" d="
M 508.1 147.95
Q 507.85 146.45 506.5 145.8
L 375.25 83.9
Q 374.4 83.5 373.6 83.65 372.7 83.75 372.1 84.35
L 334.55 117.55 329.65 114.95
Q 329.05 114.6 328.35 114.6 327.6 114.6 326.95 114.95
L 322.05 117.55 284.55 84.35
Q 283.9 83.75 283.05 83.65 282.2 83.5 281.4 83.9
L 150.15 145.8
Q 148.8 146.4 148.5 147.95 148.4 149.55 149.35 150.5
L 188.55 188.35 182.4 191.65
Q 181.7 192 181.2 192.75
L 159.9 230.35
Q 159.35 231.4 159.65 232.55 159.95 233.7 161 234.3
L 286.2 305.75
Q 287.1 306.3 288.2 306.1 289.25 305.85 289.9 305
L 316.35 270.45
Q 317.15 269.4 316.9 268.1 316.65 266.8 315.45 266.15
L 191.25 197.65 323.6 127.45 323.6 213.8 291.1 232.65
Q 289.65 233.5 289.65 235.15 289.7 236.9 291.15 237.7
L 326.9 257.4
Q 328.35 258.15 329.7 257.4
L 365.5 237.7
Q 367 236.85 367 235.15 367 233.5 365.55 232.65
L 333.05 213.8 333.05 127.45 465.4 197.65 341.15 266.15
Q 339.95 266.8 339.7 268.1 339.45 269.35 340.25 270.45
L 366.7 305
Q 367.55 306.1 369 306.1 369.8 306.1 370.45 305.75
L 495.65 234.3
Q 496.65 233.7 497 232.55 497.3 231.45 496.7 230.35
L 475.45 192.75
Q 474.95 192 474.3 191.65
L 468.1 188.35 507.3 150.5
Q 508.35 149.4 508.1 147.95 Z"/>
</g>

<g id="Layer0_5_MEMBER_0_MEMBER_0_FILL">
<path fill="#99C4E4" stroke="none" d="
M 321.2 292
Q 320.65 291.25 319.75 290.95 318.85 290.7 318 290.95 317.1 291.2 316.5 291.9
L 295.35 319.6
Q 294.45 320.8 293.05 321.5 291.65 322.15 290.15 322.15 288.35 322.15 286.85 321.3
L 189.9 265.95
Q 188.4 265.1 187 265.95 185.55 266.75 185.55 268.45
L 185.55 311.65
Q 185.55 313.3 187 314.2
L 317.35 389.6
Q 318.1 390 318.8 390 319.55 390 320.3 389.6 321.75 388.8 321.75 387.1
L 321.75 293.7
Q 321.75 292.75 321.2 292 Z"/>
</g>

<g id="Layer0_5_MEMBER_0_MEMBER_1_FILL">
<path fill="#99C4E4" stroke="none" d="
M 471.1 268.45
Q 471.1 266.75 469.65 265.95 468.2 265.1 466.75 265.95
L 369.75 321.3
Q 368.3 322.15 366.55 322.15 365 322.15 363.65 321.5 362.2 320.8 361.3 319.6
L 340.15 291.9
Q 339.6 291.2 338.65 290.95 337.75 290.65 336.9 290.95 336 291.25 335.45 292 334.9 292.8 334.9 293.7
L 334.9 387.1
Q 334.9 388.75 336.35 389.6 337.1 390 337.8 390 338.55 390 339.25 389.6
L 469.65 314.15
Q 471.1 313.35 471.1 311.65
L 471.1 268.45 Z"/>
</g>

<g id="Layer0_5_MEMBER_0_MEMBER_2_FILL">
<path fill="#99C4E4" stroke="none" d="
M 508.1 147.95
Q 507.85 146.45 506.5 145.8
L 375.25 83.9
Q 374.4 83.5 373.6 83.65 372.7 83.75 372.1 84.35
L 334.55 117.55 329.65 114.95
Q 329.05 114.6 328.35 114.6 327.6 114.6 326.95 114.95
L 322.05 117.55 284.55 84.35
Q 283.9 83.75 283.05 83.65 282.2 83.5 281.4 83.9
L 150.15 145.8
Q 148.8 146.4 148.5 147.95 148.4 149.55 149.35 150.5
L 188.55 188.35 182.4 191.65
Q 181.7 192 181.2 192.75
L 159.9 230.35
Q 159.35 231.4 159.65 232.55 159.95 233.7 161 234.3
L 286.2 305.75
Q 287.1 306.3 288.2 306.1 289.25 305.85 289.9 305
L 316.35 270.45
Q 317.15 269.4 316.9 268.1 316.65 266.8 315.45 266.15
L 191.25 197.65 323.6 127.45 323.6 213.8 291.1 232.65
Q 289.65 233.5 289.65 235.15 289.7 236.9 291.15 237.7
L 326.9 257.4
Q 328.35 258.15 329.7 257.4
L 365.5 237.7
Q 367 236.85 367 235.15 367 233.5 365.55 232.65
L 333.05 213.8 333.05 127.45 465.4 197.65 341.15 266.15
Q 339.95 266.8 339.7 268.1 339.45 269.35 340.25 270.45
L 366.7 305
Q 367.55 306.1 369 306.1 369.8 306.1 370.45 305.75
L 495.65 234.3
Q 496.65 233.7 497 232.55 497.3 231.45 496.7 230.35
L 475.45 192.75
Q 474.95 192 474.3 191.65
L 468.1 188.35 507.3 150.5
Q 508.35 149.4 508.1 147.95 Z"/>
</g>

<g id="Layer0_6_MEMBER_0_MEMBER_0_FILL">
<path fill="#99C4E4" stroke="none" d="
M 321.2 292
Q 320.65 291.25 319.75 290.95 318.85 290.7 318 290.95 317.1 291.2 316.5 291.9
L 295.35 319.6
Q 294.45 320.8 293.05 321.5 291.65 322.15 290.15 322.15 288.35 322.15 286.85 321.3
L 189.9 265.95
Q 188.4 265.1 187 265.95 185.55 266.75 185.55 268.45
L 185.55 311.65
Q 185.55 313.3 187 314.2
L 317.35 389.6
Q 318.1 390 318.8 390 319.55 390 320.3 389.6 321.75 388.8 321.75 387.1
L 321.75 293.7
Q 321.75 292.75 321.2 292 Z"/>
</g>

<g id="Layer0_6_MEMBER_0_MEMBER_1_FILL">
<path fill="#99C4E4" stroke="none" d="
M 471.1 268.45
Q 471.1 266.75 469.65 265.95 468.2 265.1 466.75 265.95
L 369.75 321.3
Q 368.3 322.15 366.55 322.15 365 322.15 363.65 321.5 362.2 320.8 361.3 319.6
L 340.15 291.9
Q 339.6 291.2 338.65 290.95 337.75 290.65 336.9 290.95 336 291.25 335.45 292 334.9 292.8 334.9 293.7
L 334.9 387.1
Q 334.9 388.75 336.35 389.6 337.1 390 337.8 390 338.55 390 339.25 389.6
L 469.65 314.15
Q 471.1 313.35 471.1 311.65
L 471.1 268.45 Z"/>
</g>

<g id="Layer0_6_MEMBER_0_MEMBER_2_FILL">
<path fill="#99C4E4" stroke="none" d="
M 508.1 147.95
Q 507.85 146.45 506.5 145.8
L 375.25 83.9
Q 374.4 83.5 373.6 83.65 372.7 83.75 372.1 84.35
L 334.55 117.55 329.65 114.95
Q 329.05 114.6 328.35 114.6 327.6 114.6 326.95 114.95
L 322.05 117.55 284.55 84.35
Q 283.9 83.75 283.05 83.65 282.2 83.5 281.4 83.9
L 150.15 145.8
Q 148.8 146.4 148.5 147.95 148.4 149.55 149.35 150.5
L 188.55 188.35 182.4 191.65
Q 181.7 192 181.2 192.75
L 159.9 230.35
Q 159.35 231.4 159.65 232.55 159.95 233.7 161 234.3
L 286.2 305.75
Q 287.1 306.3 288.2 306.1 289.25 305.85 289.9 305
L 316.35 270.45
Q 317.15 269.4 316.9 268.1 316.65 266.8 315.45 266.15
L 191.25 197.65 323.6 127.45 323.6 213.8 291.1 232.65
Q 289.65 233.5 289.65 235.15 289.7 236.9 291.15 237.7
L 326.9 257.4
Q 328.35 258.15 329.7 257.4
L 365.5 237.7
Q 367 236.85 367 235.15 367 233.5 365.55 232.65
L 333.05 213.8 333.05 127.45 465.4 197.65 341.15 266.15
Q 339.95 266.8 339.7 268.1 339.45 269.35 340.25 270.45
L 366.7 305
Q 367.55 306.1 369 306.1 369.8 306.1 370.45 305.75
L 495.65 234.3
Q 496.65 233.7 497 232.55 497.3 231.45 496.7 230.35
L 475.45 192.75
Q 474.95 192 474.3 191.65
L 468.1 188.35 507.3 150.5
Q 508.35 149.4 508.1 147.95 Z"/>
</g>

<g id="Layer0_7_MEMBER_0_MEMBER_0_FILL">
<path fill="#99C4E4" stroke="none" d="
M 321.2 292
Q 320.65 291.25 319.75 290.95 318.85 290.7 318 290.95 317.1 291.2 316.5 291.9
L 295.35 319.6
Q 294.45 320.8 293.05 321.5 291.65 322.15 290.15 322.15 288.35 322.15 286.85 321.3
L 189.9 265.95
Q 188.4 265.1 187 265.95 185.55 266.75 185.55 268.45
L 185.55 311.65
Q 185.55 313.3 187 314.2
L 317.35 389.6
Q 318.1 390 318.8 390 319.55 390 320.3 389.6 321.75 388.8 321.75 387.1
L 321.75 293.7
Q 321.75 292.75 321.2 292 Z"/>
</g>

<g id="Layer0_7_MEMBER_0_MEMBER_1_FILL">
<path fill="#99C4E4" stroke="none" d="
M 471.1 268.45
Q 471.1 266.75 469.65 265.95 468.2 265.1 466.75 265.95
L 369.75 321.3
Q 368.3 322.15 366.55 322.15 365 322.15 363.65 321.5 362.2 320.8 361.3 319.6
L 340.15 291.9
Q 339.6 291.2 338.65 290.95 337.75 290.65 336.9 290.95 336 291.25 335.45 292 334.9 292.8 334.9 293.7
L 334.9 387.1
Q 334.9 388.75 336.35 389.6 337.1 390 337.8 390 338.55 390 339.25 389.6
L 469.65 314.15
Q 471.1 313.35 471.1 311.65
L 471.1 268.45 Z"/>
</g>

<g id="Layer0_7_MEMBER_0_MEMBER_2_FILL">
<path fill="#99C4E4" stroke="none" d="
M 508.1 147.95
Q 507.85 146.45 506.5 145.8
L 375.25 83.9
Q 374.4 83.5 373.6 83.65 372.7 83.75 372.1 84.35
L 334.55 117.55 329.65 114.95
Q 329.05 114.6 328.35 114.6 327.6 114.6 326.95 114.95
L 322.05 117.55 284.55 84.35
Q 283.9 83.75 283.05 83.65 282.2 83.5 281.4 83.9
L 150.15 145.8
Q 148.8 146.4 148.5 147.95 148.4 149.55 149.35 150.5
L 188.55 188.35 182.4 191.65
Q 181.7 192 181.2 192.75
L 159.9 230.35
Q 159.35 231.4 159.65 232.55 159.95 233.7 161 234.3
L 286.2 305.75
Q 287.1 306.3 288.2 306.1 289.25 305.85 289.9 305
L 316.35 270.45
Q 317.15 269.4 316.9 268.1 316.65 266.8 315.45 266.15
L 191.25 197.65 323.6 127.45 323.6 213.8 291.1 232.65
Q 289.65 233.5 289.65 235.15 289.7 236.9 291.15 237.7
L 326.9 257.4
Q 328.35 258.15 329.7 257.4
L 365.5 237.7
Q 367 236.85 367 235.15 367 233.5 365.55 232.65
L 333.05 213.8 333.05 127.45 465.4 197.65 341.15 266.15
Q 339.95 266.8 339.7 268.1 339.45 269.35 340.25 270.45
L 366.7 305
Q 367.55 306.1 369 306.1 369.8 306.1 370.45 305.75
L 495.65 234.3
Q 496.65 233.7 497 232.55 497.3 231.45 496.7 230.35
L 475.45 192.75
Q 474.95 192 474.3 191.65
L 468.1 188.35 507.3 150.5
Q 508.35 149.4 508.1 147.95 Z"/>
</g>

<g id="Layer0_8_MEMBER_0_MEMBER_0_FILL">
<path fill="#99C4E4" stroke="none" d="
M 321.2 292
Q 320.65 291.25 319.75 290.95 318.85 290.7 318 290.95 317.1 291.2 316.5 291.9
L 295.35 319.6
Q 294.45 320.8 293.05 321.5 291.65 322.15 290.15 322.15 288.35 322.15 286.85 321.3
L 189.9 265.95
Q 188.4 265.1 187 265.95 185.55 266.75 185.55 268.45
L 185.55 311.65
Q 185.55 313.3 187 314.2
L 317.35 389.6
Q 318.1 390 318.8 390 319.55 390 320.3 389.6 321.75 388.8 321.75 387.1
L 321.75 293.7
Q 321.75 292.75 321.2 292 Z"/>
</g>

<g id="Layer0_8_MEMBER_0_MEMBER_1_FILL">
<path fill="#99C4E4" stroke="none" d="
M 471.1 268.45
Q 471.1 266.75 469.65 265.95 468.2 265.1 466.75 265.95
L 369.75 321.3
Q 368.3 322.15 366.55 322.15 365 322.15 363.65 321.5 362.2 320.8 361.3 319.6
L 340.15 291.9
Q 339.6 291.2 338.65 290.95 337.75 290.65 336.9 290.95 336 291.25 335.45 292 334.9 292.8 334.9 293.7
L 334.9 387.1
Q 334.9 388.75 336.35 389.6 337.1 390 337.8 390 338.55 390 339.25 389.6
L 469.65 314.15
Q 471.1 313.35 471.1 311.65
L 471.1 268.45 Z"/>
</g>

<g id="Layer0_8_MEMBER_0_MEMBER_2_FILL">
<path fill="#99C4E4" stroke="none" d="
M 508.1 147.95
Q 507.85 146.45 506.5 145.8
L 375.25 83.9
Q 374.4 83.5 373.6 83.65 372.7 83.75 372.1 84.35
L 334.55 117.55 329.65 114.95
Q 329.05 114.6 328.35 114.6 327.6 114.6 326.95 114.95
L 322.05 117.55 284.55 84.35
Q 283.9 83.75 283.05 83.65 282.2 83.5 281.4 83.9
L 150.15 145.8
Q 148.8 146.4 148.5 147.95 148.4 149.55 149.35 150.5
L 188.55 188.35 182.4 191.65
Q 181.7 192 181.2 192.75
L 159.9 230.35
Q 159.35 231.4 159.65 232.55 159.95 233.7 161 234.3
L 286.2 305.75
Q 287.1 306.3 288.2 306.1 289.25 305.85 289.9 305
L 316.35 270.45
Q 317.15 269.4 316.9 268.1 316.65 266.8 315.45 266.15
L 191.25 197.65 323.6 127.45 323.6 213.8 291.1 232.65
Q 289.65 233.5 289.65 235.15 289.7 236.9 291.15 237.7
L 326.9 257.4
Q 328.35 258.15 329.7 257.4
L 365.5 237.7
Q 367 236.85 367 235.15 367 233.5 365.55 232.65
L 333.05 213.8 333.05 127.45 465.4 197.65 341.15 266.15
Q 339.95 266.8 339.7 268.1 339.45 269.35 340.25 270.45
L 366.7 305
Q 367.55 306.1 369 306.1 369.8 306.1 370.45 305.75
L 495.65 234.3
Q 496.65 233.7 497 232.55 497.3 231.45 496.7 230.35
L 475.45 192.75
Q 474.95 192 474.3 191.65
L 468.1 188.35 507.3 150.5
Q 508.35 149.4 508.1 147.95 Z"/>
</g>

<g id="Layer0_9_MEMBER_0_MEMBER_0_FILL">
<path fill="#99C4E4" stroke="none" d="
M 321.2 292
Q 320.65 291.25 319.75 290.95 318.85 290.7 318 290.95 317.1 291.2 316.5 291.9
L 295.35 319.6
Q 294.45 320.8 293.05 321.5 291.65 322.15 290.15 322.15 288.35 322.15 286.85 321.3
L 189.9 265.95
Q 188.4 265.1 187 265.95 185.55 266.75 185.55 268.45
L 185.55 311.65
Q 185.55 313.3 187 314.2
L 317.35 389.6
Q 318.1 390 318.8 390 319.55 390 320.3 389.6 321.75 388.8 321.75 387.1
L 321.75 293.7
Q 321.75 292.75 321.2 292 Z"/>
</g>

<g id="Layer0_9_MEMBER_0_MEMBER_1_FILL">
<path fill="#99C4E4" stroke="none" d="
M 471.1 268.45
Q 471.1 266.75 469.65 265.95 468.2 265.1 466.75 265.95
L 369.75 321.3
Q 368.3 322.15 366.55 322.15 365 322.15 363.65 321.5 362.2 320.8 361.3 319.6
L 340.15 291.9
Q 339.6 291.2 338.65 290.95 337.75 290.65 336.9 290.95 336 291.25 335.45 292 334.9 292.8 334.9 293.7
L 334.9 387.1
Q 334.9 388.75 336.35 389.6 337.1 390 337.8 390 338.55 390 339.25 389.6
L 469.65 314.15
Q 471.1 313.35 471.1 311.65
L 471.1 268.45 Z"/>
</g>

<g id="Layer0_9_MEMBER_0_MEMBER_2_FILL">
<path fill="#99C4E4" stroke="none" d="
M 508.1 147.95
Q 507.85 146.45 506.5 145.8
L 375.25 83.9
Q 374.4 83.5 373.6 83.65 372.7 83.75 372.1 84.35
L 334.55 117.55 329.65 114.95
Q 329.05 114.6 328.35 114.6 327.6 114.6 326.95 114.95
L 322.05 117.55 284.55 84.35
Q 283.9 83.75 283.05 83.65 282.2 83.5 281.4 83.9
L 150.15 145.8
Q 148.8 146.4 148.5 147.95 148.4 149.55 149.35 150.5
L 188.55 188.35 182.4 191.65
Q 181.7 192 181.2 192.75
L 159.9 230.35
Q 159.35 231.4 159.65 232.55 159.95 233.7 161 234.3
L 286.2 305.75
Q 287.1 306.3 288.2 306.1 289.25 305.85 289.9 305
L 316.35 270.45
Q 317.15 269.4 316.9 268.1 316.65 266.8 315.45 266.15
L 191.25 197.65 323.6 127.45 323.6 213.8 291.1 232.65
Q 289.65 233.5 289.65 235.15 289.7 236.9 291.15 237.7
L 326.9 257.4
Q 328.35 258.15 329.7 257.4
L 365.5 237.7
Q 367 236.85 367 235.15 367 233.5 365.55 232.65
L 333.05 213.8 333.05 127.45 465.4 197.65 341.15 266.15
Q 339.95 266.8 339.7 268.1 339.45 269.35 340.25 270.45
L 366.7 305
Q 367.55 306.1 369 306.1 369.8 306.1 370.45 305.75
L 495.65 234.3
Q 496.65 233.7 497 232.55 497.3 231.45 496.7 230.35
L 475.45 192.75
Q 474.95 192 474.3 191.65
L 468.1 188.35 507.3 150.5
Q 508.35 149.4 508.1 147.95 Z"/>
</g>

<g id="Layer0_10_MEMBER_0_MEMBER_0_FILL">
<path fill="#99C4E4" stroke="none" d="
M 321.2 292
Q 320.65 291.25 319.75 290.95 318.85 290.7 318 290.95 317.1 291.2 316.5 291.9
L 295.35 319.6
Q 294.45 320.8 293.05 321.5 291.65 322.15 290.15 322.15 288.35 322.15 286.85 321.3
L 189.9 265.95
Q 188.4 265.1 187 265.95 185.55 266.75 185.55 268.45
L 185.55 311.65
Q 185.55 313.3 187 314.2
L 317.35 389.6
Q 318.1 390 318.8 390 319.55 390 320.3 389.6 321.75 388.8 321.75 387.1
L 321.75 293.7
Q 321.75 292.75 321.2 292 Z"/>
</g>

<g id="Layer0_10_MEMBER_0_MEMBER_1_FILL">
<path fill="#99C4E4" stroke="none" d="
M 471.1 268.45
Q 471.1 266.75 469.65 265.95 468.2 265.1 466.75 265.95
L 369.75 321.3
Q 368.3 322.15 366.55 322.15 365 322.15 363.65 321.5 362.2 320.8 361.3 319.6
L 340.15 291.9
Q 339.6 291.2 338.65 290.95 337.75 290.65 336.9 290.95 336 291.25 335.45 292 334.9 292.8 334.9 293.7
L 334.9 387.1
Q 334.9 388.75 336.35 389.6 337.1 390 337.8 390 338.55 390 339.25 389.6
L 469.65 314.15
Q 471.1 313.35 471.1 311.65
L 471.1 268.45 Z"/>
</g>

<g id="Layer0_10_MEMBER_0_MEMBER_2_FILL">
<path fill="#99C4E4" stroke="none" d="
M 508.1 147.95
Q 507.85 146.45 506.5 145.8
L 375.25 83.9
Q 374.4 83.5 373.6 83.65 372.7 83.75 372.1 84.35
L 334.55 117.55 329.65 114.95
Q 329.05 114.6 328.35 114.6 327.6 114.6 326.95 114.95
L 322.05 117.55 284.55 84.35
Q 283.9 83.75 283.05 83.65 282.2 83.5 281.4 83.9
L 150.15 145.8
Q 148.8 146.4 148.5 147.95 148.4 149.55 149.35 150.5
L 188.55 188.35 182.4 191.65
Q 181.7 192 181.2 192.75
L 159.9 230.35
Q 159.35 231.4 159.65 232.55 159.95 233.7 161 234.3
L 286.2 305.75
Q 287.1 306.3 288.2 306.1 289.25 305.85 289.9 305
L 316.35 270.45
Q 317.15 269.4 316.9 268.1 316.65 266.8 315.45 266.15
L 191.25 197.65 323.6 127.45 323.6 213.8 291.1 232.65
Q 289.65 233.5 289.65 235.15 289.7 236.9 291.15 237.7
L 326.9 257.4
Q 328.35 258.15 329.7 257.4
L 365.5 237.7
Q 367 236.85 367 235.15 367 233.5 365.55 232.65
L 333.05 213.8 333.05 127.45 465.4 197.65 341.15 266.15
Q 339.95 266.8 339.7 268.1 339.45 269.35 340.25 270.45
L 366.7 305
Q 367.55 306.1 369 306.1 369.8 306.1 370.45 305.75
L 495.65 234.3
Q 496.65 233.7 497 232.55 497.3 231.45 496.7 230.35
L 475.45 192.75
Q 474.95 192 474.3 191.65
L 468.1 188.35 507.3 150.5
Q 508.35 149.4 508.1 147.95 Z"/>
</g>

<g id="Layer0_11_MEMBER_0_MEMBER_0_FILL">
<path fill="#99C4E4" stroke="none" d="
M 321.2 292
Q 320.65 291.25 319.75 290.95 318.85 290.7 318 290.95 317.1 291.2 316.5 291.9
L 295.35 319.6
Q 294.45 320.8 293.05 321.5 291.65 322.15 290.15 322.15 288.35 322.15 286.85 321.3
L 189.9 265.95
Q 188.4 265.1 187 265.95 185.55 266.75 185.55 268.45
L 185.55 311.65
Q 185.55 313.3 187 314.2
L 317.35 389.6
Q 318.1 390 318.8 390 319.55 390 320.3 389.6 321.75 388.8 321.75 387.1
L 321.75 293.7
Q 321.75 292.75 321.2 292 Z"/>
</g>

<g id="Layer0_11_MEMBER_0_MEMBER_1_FILL">
<path fill="#99C4E4" stroke="none" d="
M 471.1 268.45
Q 471.1 266.75 469.65 265.95 468.2 265.1 466.75 265.95
L 369.75 321.3
Q 368.3 322.15 366.55 322.15 365 322.15 363.65 321.5 362.2 320.8 361.3 319.6
L 340.15 291.9
Q 339.6 291.2 338.65 290.95 337.75 290.65 336.9 290.95 336 291.25 335.45 292 334.9 292.8 334.9 293.7
L 334.9 387.1
Q 334.9 388.75 336.35 389.6 337.1 390 337.8 390 338.55 390 339.25 389.6
L 469.65 314.15
Q 471.1 313.35 471.1 311.65
L 471.1 268.45 Z"/>
</g>

<g id="Layer0_11_MEMBER_0_MEMBER_2_FILL">
<path fill="#99C4E4" stroke="none" d="
M 508.1 147.95
Q 507.85 146.45 506.5 145.8
L 375.25 83.9
Q 374.4 83.5 373.6 83.65 372.7 83.75 372.1 84.35
L 334.55 117.55 329.65 114.95
Q 329.05 114.6 328.35 114.6 327.6 114.6 326.95 114.95
L 322.05 117.55 284.55 84.35
Q 283.9 83.75 283.05 83.65 282.2 83.5 281.4 83.9
L 150.15 145.8
Q 148.8 146.4 148.5 147.95 148.4 149.55 149.35 150.5
L 188.55 188.35 182.4 191.65
Q 181.7 192 181.2 192.75
L 159.9 230.35
Q 159.35 231.4 159.65 232.55 159.95 233.7 161 234.3
L 286.2 305.75
Q 287.1 306.3 288.2 306.1 289.25 305.85 289.9 305
L 316.35 270.45
Q 317.15 269.4 316.9 268.1 316.65 266.8 315.45 266.15
L 191.25 197.65 323.6 127.45 323.6 213.8 291.1 232.65
Q 289.65 233.5 289.65 235.15 289.7 236.9 291.15 237.7
L 326.9 257.4
Q 328.35 258.15 329.7 257.4
L 365.5 237.7
Q 367 236.85 367 235.15 367 233.5 365.55 232.65
L 333.05 213.8 333.05 127.45 465.4 197.65 341.15 266.15
Q 339.95 266.8 339.7 268.1 339.45 269.35 340.25 270.45
L 366.7 305
Q 367.55 306.1 369 306.1 369.8 306.1 370.45 305.75
L 495.65 234.3
Q 496.65 233.7 497 232.55 497.3 231.45 496.7 230.35
L 475.45 192.75
Q 474.95 192 474.3 191.65
L 468.1 188.35 507.3 150.5
Q 508.35 149.4 508.1 147.95 Z"/>
</g>

<g id="Layer0_12_MEMBER_0_MEMBER_0_FILL">
<path fill="#99C4E4" stroke="none" d="
M 321.2 292
Q 320.65 291.25 319.75 290.95 318.85 290.7 318 290.95 317.1 291.2 316.5 291.9
L 295.35 319.6
Q 294.45 320.8 293.05 321.5 291.65 322.15 290.15 322.15 288.35 322.15 286.85 321.3
L 189.9 265.95
Q 188.4 265.1 187 265.95 185.55 266.75 185.55 268.45
L 185.55 311.65
Q 185.55 313.3 187 314.2
L 317.35 389.6
Q 318.1 390 318.8 390 319.55 390 320.3 389.6 321.75 388.8 321.75 387.1
L 321.75 293.7
Q 321.75 292.75 321.2 292 Z"/>
</g>

<g id="Layer0_12_MEMBER_0_MEMBER_1_FILL">
<path fill="#99C4E4" stroke="none" d="
M 471.1 268.45
Q 471.1 266.75 469.65 265.95 468.2 265.1 466.75 265.95
L 369.75 321.3
Q 368.3 322.15 366.55 322.15 365 322.15 363.65 321.5 362.2 320.8 361.3 319.6
L 340.15 291.9
Q 339.6 291.2 338.65 290.95 337.75 290.65 336.9 290.95 336 291.25 335.45 292 334.9 292.8 334.9 293.7
L 334.9 387.1
Q 334.9 388.75 336.35 389.6 337.1 390 337.8 390 338.55 390 339.25 389.6
L 469.65 314.15
Q 471.1 313.35 471.1 311.65
L 471.1 268.45 Z"/>
</g>

<g id="Layer0_12_MEMBER_0_MEMBER_2_FILL">
<path fill="#99C4E4" stroke="none" d="
M 508.1 147.95
Q 507.85 146.45 506.5 145.8
L 375.25 83.9
Q 374.4 83.5 373.6 83.65 372.7 83.75 372.1 84.35
L 334.55 117.55 329.65 114.95
Q 329.05 114.6 328.35 114.6 327.6 114.6 326.95 114.95
L 322.05 117.55 284.55 84.35
Q 283.9 83.75 283.05 83.65 282.2 83.5 281.4 83.9
L 150.15 145.8
Q 148.8 146.4 148.5 147.95 148.4 149.55 149.35 150.5
L 188.55 188.35 182.4 191.65
Q 181.7 192 181.2 192.75
L 159.9 230.35
Q 159.35 231.4 159.65 232.55 159.95 233.7 161 234.3
L 286.2 305.75
Q 287.1 306.3 288.2 306.1 289.25 305.85 289.9 305
L 316.35 270.45
Q 317.15 269.4 316.9 268.1 316.65 266.8 315.45 266.15
L 191.25 197.65 323.6 127.45 323.6 213.8 291.1 232.65
Q 289.65 233.5 289.65 235.15 289.7 236.9 291.15 237.7
L 326.9 257.4
Q 328.35 258.15 329.7 257.4
L 365.5 237.7
Q 367 236.85 367 235.15 367 233.5 365.55 232.65
L 333.05 213.8 333.05 127.45 465.4 197.65 341.15 266.15
Q 339.95 266.8 339.7 268.1 339.45 269.35 340.25 270.45
L 366.7 305
Q 367.55 306.1 369 306.1 369.8 306.1 370.45 305.75
L 495.65 234.3
Q 496.65 233.7 497 232.55 497.3 231.45 496.7 230.35
L 475.45 192.75
Q 474.95 192 474.3 191.65
L 468.1 188.35 507.3 150.5
Q 508.35 149.4 508.1 147.95 Z"/>
</g>

<g id="Layer0_13_MEMBER_0_MEMBER_0_FILL">
<path fill="#99C4E4" stroke="none" d="
M 321.2 292
Q 320.65 291.25 319.75 290.95 318.85 290.7 318 290.95 317.1 291.2 316.5 291.9
L 295.35 319.6
Q 294.45 320.8 293.05 321.5 291.65 322.15 290.15 322.15 288.35 322.15 286.85 321.3
L 189.9 265.95
Q 188.4 265.1 187 265.95 185.55 266.75 185.55 268.45
L 185.55 311.65
Q 185.55 313.3 187 314.2
L 317.35 389.6
Q 318.1 390 318.8 390 319.55 390 320.3 389.6 321.75 388.8 321.75 387.1
L 321.75 293.7
Q 321.75 292.75 321.2 292 Z"/>
</g>

<g id="Layer0_13_MEMBER_0_MEMBER_1_FILL">
<path fill="#99C4E4" stroke="none" d="
M 471.1 268.45
Q 471.1 266.75 469.65 265.95 468.2 265.1 466.75 265.95
L 369.75 321.3
Q 368.3 322.15 366.55 322.15 365 322.15 363.65 321.5 362.2 320.8 361.3 319.6
L 340.15 291.9
Q 339.6 291.2 338.65 290.95 337.75 290.65 336.9 290.95 336 291.25 335.45 292 334.9 292.8 334.9 293.7
L 334.9 387.1
Q 334.9 388.75 336.35 389.6 337.1 390 337.8 390 338.55 390 339.25 389.6
L 469.65 314.15
Q 471.1 313.35 471.1 311.65
L 471.1 268.45 Z"/>
</g>

<g id="Layer0_13_MEMBER_0_MEMBER_2_FILL">
<path fill="#99C4E4" stroke="none" d="
M 508.1 147.95
Q 507.85 146.45 506.5 145.8
L 375.25 83.9
Q 374.4 83.5 373.6 83.65 372.7 83.75 372.1 84.35
L 334.55 117.55 329.65 114.95
Q 329.05 114.6 328.35 114.6 327.6 114.6 326.95 114.95
L 322.05 117.55 284.55 84.35
Q 283.9 83.75 283.05 83.65 282.2 83.5 281.4 83.9
L 150.15 145.8
Q 148.8 146.4 148.5 147.95 148.4 149.55 149.35 150.5
L 188.55 188.35 182.4 191.65
Q 181.7 192 181.2 192.75
L 159.9 230.35
Q 159.35 231.4 159.65 232.55 159.95 233.7 161 234.3
L 286.2 305.75
Q 287.1 306.3 288.2 306.1 289.25 305.85 289.9 305
L 316.35 270.45
Q 317.15 269.4 316.9 268.1 316.65 266.8 315.45 266.15
L 191.25 197.65 323.6 127.45 323.6 213.8 291.1 232.65
Q 289.65 233.5 289.65 235.15 289.7 236.9 291.15 237.7
L 326.9 257.4
Q 328.35 258.15 329.7 257.4
L 365.5 237.7
Q 367 236.85 367 235.15 367 233.5 365.55 232.65
L 333.05 213.8 333.05 127.45 465.4 197.65 341.15 266.15
Q 339.95 266.8 339.7 268.1 339.45 269.35 340.25 270.45
L 366.7 305
Q 367.55 306.1 369 306.1 369.8 306.1 370.45 305.75
L 495.65 234.3
Q 496.65 233.7 497 232.55 497.3 231.45 496.7 230.35
L 475.45 192.75
Q 474.95 192 474.3 191.65
L 468.1 188.35 507.3 150.5
Q 508.35 149.4 508.1 147.95 Z"/>
</g>

<g id="Layer0_14_MEMBER_0_MEMBER_0_FILL">
<path fill="#99C4E4" stroke="none" d="
M 321.2 292
Q 320.65 291.25 319.75 290.95 318.85 290.7 318 290.95 317.1 291.2 316.5 291.9
L 295.35 319.6
Q 294.45 320.8 293.05 321.5 291.65 322.15 290.15 322.15 288.35 322.15 286.85 321.3
L 189.9 265.95
Q 188.4 265.1 187 265.95 185.55 266.75 185.55 268.45
L 185.55 311.65
Q 185.55 313.3 187 314.2
L 317.35 389.6
Q 318.1 390 318.8 390 319.55 390 320.3 389.6 321.75 388.8 321.75 387.1
L 321.75 293.7
Q 321.75 292.75 321.2 292 Z"/>
</g>

<g id="Layer0_14_MEMBER_0_MEMBER_1_FILL">
<path fill="#99C4E4" stroke="none" d="
M 471.1 268.45
Q 471.1 266.75 469.65 265.95 468.2 265.1 466.75 265.95
L 369.75 321.3
Q 368.3 322.15 366.55 322.15 365 322.15 363.65 321.5 362.2 320.8 361.3 319.6
L 340.15 291.9
Q 339.6 291.2 338.65 290.95 337.75 290.65 336.9 290.95 336 291.25 335.45 292 334.9 292.8 334.9 293.7
L 334.9 387.1
Q 334.9 388.75 336.35 389.6 337.1 390 337.8 390 338.55 390 339.25 389.6
L 469.65 314.15
Q 471.1 313.35 471.1 311.65
L 471.1 268.45 Z"/>
</g>

<g id="Layer0_14_MEMBER_0_MEMBER_2_FILL">
<path fill="#99C4E4" stroke="none" d="
M 508.1 147.95
Q 507.85 146.45 506.5 145.8
L 375.25 83.9
Q 374.4 83.5 373.6 83.65 372.7 83.75 372.1 84.35
L 334.55 117.55 329.65 114.95
Q 329.05 114.6 328.35 114.6 327.6 114.6 326.95 114.95
L 322.05 117.55 284.55 84.35
Q 283.9 83.75 283.05 83.65 282.2 83.5 281.4 83.9
L 150.15 145.8
Q 148.8 146.4 148.5 147.95 148.4 149.55 149.35 150.5
L 188.55 188.35 182.4 191.65
Q 181.7 192 181.2 192.75
L 159.9 230.35
Q 159.35 231.4 159.65 232.55 159.95 233.7 161 234.3
L 286.2 305.75
Q 287.1 306.3 288.2 306.1 289.25 305.85 289.9 305
L 316.35 270.45
Q 317.15 269.4 316.9 268.1 316.65 266.8 315.45 266.15
L 191.25 197.65 323.6 127.45 323.6 213.8 291.1 232.65
Q 289.65 233.5 289.65 235.15 289.7 236.9 291.15 237.7
L 326.9 257.4
Q 328.35 258.15 329.7 257.4
L 365.5 237.7
Q 367 236.85 367 235.15 367 233.5 365.55 232.65
L 333.05 213.8 333.05 127.45 465.4 197.65 341.15 266.15
Q 339.95 266.8 339.7 268.1 339.45 269.35 340.25 270.45
L 366.7 305
Q 367.55 306.1 369 306.1 369.8 306.1 370.45 305.75
L 495.65 234.3
Q 496.65 233.7 497 232.55 497.3 231.45 496.7 230.35
L 475.45 192.75
Q 474.95 192 474.3 191.65
L 468.1 188.35 507.3 150.5
Q 508.35 149.4 508.1 147.95 Z"/>
</g>

<path id="Sembol_2_0_Layer0_0_1_STROKES" stroke="#83AFC6" stroke-width="10" stroke-linejoin="miter" stroke-linecap="butt" stroke-miterlimit="3" fill="none" d="
M 353.6 277.25
L 440.85 277.25
Q 454 277.25 454 290.4
L 454 368.7
M 119 377.9
L 119 290.4
Q 119 277.25 132.1 277.25
L 219.1 277.25
M 205.9 612.25
L 132.1 612.25
Q 119 612.25 119 599.15
L 119 530.9
M 454 525.6
L 454 599.15
Q 454 612.25 440.85 612.25
L 374.7 612.25"/>

<path id="Sembol_1_0_Layer0_0_1_STROKES" stroke="#83AFC6" stroke-width="12" stroke-linejoin="miter" stroke-linecap="butt" stroke-miterlimit="3" fill="none" d="
M 350 30
L 390 30 390 70 350 70 350 30 Z
M 30 30
L 70 30 70 70 30 70 30 30 Z
M 30 340
L 70 340 70 380 30 380 30 340 Z"/>

<path id="Sembol_1_0_Layer0_0_2_STROKES" stroke="#83AFC6" stroke-width="20" stroke-linejoin="miter" stroke-linecap="butt" stroke-miterlimit="3" fill="none" d="
M 320 0
L 420 0 420 100 320 100 320 0 Z
M 370 220
L 370 300 370 380
M 0 280
L 0 130 130 130 130 0 290 0 290 130 420 130 420 410 130 410 130 280 0 280 Z
M 150 40
L 250 40 250 110 150 110
M 0 0
L 100 0 100 100 0 100 0 0 Z
M 0 310
L 100 310 100 410 0 410 0 310 Z
M 40 230
L 180 230 180 370
M 310 230
L 240 230 240 365.25 310 365.25
M 40 180
L 360 180
M 290 300
L 370 300"/>
</defs>

<g transform="matrix( 1, 0, 0, 1, 1950,-230) ">
<g transform="matrix( 1, 0, 0, 1, 0,0) ">
<use xlink:href="#Sembol_2_0_Layer0_0_FILL"/>

<use xlink:href="#Sembol_2_0_Layer0_0_1_STROKES"/>
</g>

<g transform="matrix( 0.5767364501953125, 0, 0, 0.5767364501953125, 163.25,329.8) ">
<g transform="matrix( 1, 0, 0, 1, 0,0) ">
<use xlink:href="#Sembol_1_0_Layer0_0_FILL"/>

<use xlink:href="#Sembol_1_0_Layer0_0_1_STROKES"/>

<use xlink:href="#Sembol_1_0_Layer0_0_2_STROKES"/>
</g>
</g>
</g>

<g transform="matrix( 0.690948486328125, 0, 0, 0.690948486328125, -201.1,-46.5) ">
<use xlink:href="#Layer0_0_MEMBER_0_MEMBER_0_FILL"/>
</g>

<g transform="matrix( 0.690948486328125, 0, 0, 0.690948486328125, -201.1,-46.5) ">
<use xlink:href="#Layer0_0_MEMBER_0_MEMBER_1_FILL"/>
</g>

<g transform="matrix( 0.690948486328125, 0, 0, 0.690948486328125, -201.1,-46.5) ">
<use xlink:href="#Layer0_0_MEMBER_0_MEMBER_2_FILL"/>
</g>

<g transform="matrix( 0.69091796875, 0, 0, 0.69091796875, 148.9,-46.5) ">
<use xlink:href="#Layer0_1_MEMBER_0_MEMBER_0_FILL"/>
</g>

<g transform="matrix( 0.69091796875, 0, 0, 0.69091796875, 148.9,-46.5) ">
<use xlink:href="#Layer0_1_MEMBER_0_MEMBER_1_FILL"/>
</g>

<g transform="matrix( 0.69091796875, 0, 0, 0.69091796875, 148.9,-46.5) ">
<use xlink:href="#Layer0_1_MEMBER_0_MEMBER_2_FILL"/>
</g>

<g transform="matrix( 0.690887451171875, 0, 0, 0.690887451171875, 498.9,-46.5) ">
<use xlink:href="#Layer0_2_MEMBER_0_MEMBER_0_FILL"/>
</g>

<g transform="matrix( 0.690887451171875, 0, 0, 0.690887451171875, 498.9,-46.5) ">
<use xlink:href="#Layer0_2_MEMBER_0_MEMBER_1_FILL"/>
</g>

<g transform="matrix( 0.690887451171875, 0, 0, 0.690887451171875, 498.9,-46.5) ">
<use xlink:href="#Layer0_2_MEMBER_0_MEMBER_2_FILL"/>
</g>

<g transform="matrix( 0.690887451171875, 0, 0, 0.690887451171875, -11.1,173.5) ">
<use xlink:href="#Layer0_3_MEMBER_0_MEMBER_0_FILL"/>
</g>

<g transform="matrix( 0.690887451171875, 0, 0, 0.690887451171875, -11.1,173.5) ">
<use xlink:href="#Layer0_3_MEMBER_0_MEMBER_1_FILL"/>
</g>

<g transform="matrix( 0.690887451171875, 0, 0, 0.690887451171875, -11.1,173.5) ">
<use xlink:href="#Layer0_3_MEMBER_0_MEMBER_2_FILL"/>
</g>

<g transform="matrix( 0.69085693359375, 0, 0, 0.69085693359375, 338.9,173.5) ">
<use xlink:href="#Layer0_4_MEMBER_0_MEMBER_0_FILL"/>
</g>

<g transform="matrix( 0.69085693359375, 0, 0, 0.69085693359375, 338.9,173.5) ">
<use xlink:href="#Layer0_4_MEMBER_0_MEMBER_1_FILL"/>
</g>

<g transform="matrix( 0.69085693359375, 0, 0, 0.69085693359375, 338.9,173.5) ">
<use xlink:href="#Layer0_4_MEMBER_0_MEMBER_2_FILL"/>
</g>

<g transform="matrix( 0.69091796875, 0, 0, 0.69091796875, -181.15,385.2) ">
<use xlink:href="#Layer0_5_MEMBER_0_MEMBER_0_FILL"/>
</g>

<g transform="matrix( 0.69091796875, 0, 0, 0.69091796875, -181.15,385.2) ">
<use xlink:href="#Layer0_5_MEMBER_0_MEMBER_1_FILL"/>
</g>

<g transform="matrix( 0.69091796875, 0, 0, 0.69091796875, -181.15,385.2) ">
<use xlink:href="#Layer0_5_MEMBER_0_MEMBER_2_FILL"/>
</g>

<g transform="matrix( 0.690887451171875, 0, 0, 0.690887451171875, 168.85,385.2) ">
<use xlink:href="#Layer0_6_MEMBER_0_MEMBER_0_FILL"/>
</g>

<g transform="matrix( 0.690887451171875, 0, 0, 0.690887451171875, 168.85,385.2) ">
<use xlink:href="#Layer0_6_MEMBER_0_MEMBER_1_FILL"/>
</g>

<g transform="matrix( 0.690887451171875, 0, 0, 0.690887451171875, 168.85,385.2) ">
<use xlink:href="#Layer0_6_MEMBER_0_MEMBER_2_FILL"/>
</g>

<g transform="matrix( 0.69085693359375, 0, 0, 0.69085693359375, 518.85,385.2) ">
<use xlink:href="#Layer0_7_MEMBER_0_MEMBER_0_FILL"/>
</g>

<g transform="matrix( 0.69085693359375, 0, 0, 0.69085693359375, 518.85,385.2) ">
<use xlink:href="#Layer0_7_MEMBER_0_MEMBER_1_FILL"/>
</g>

<g transform="matrix( 0.69085693359375, 0, 0, 0.69085693359375, 518.85,385.2) ">
<use xlink:href="#Layer0_7_MEMBER_0_MEMBER_2_FILL"/>
</g>

<g transform="matrix( 0.69085693359375, 0, 0, 0.69085693359375, 8.85,605.2) ">
<use xlink:href="#Layer0_8_MEMBER_0_MEMBER_0_FILL"/>
</g>

<g transform="matrix( 0.69085693359375, 0, 0, 0.69085693359375, 8.85,605.2) ">
<use xlink:href="#Layer0_8_MEMBER_0_MEMBER_1_FILL"/>
</g>

<g transform="matrix( 0.69085693359375, 0, 0, 0.69085693359375, 8.85,605.2) ">
<use xlink:href="#Layer0_8_MEMBER_0_MEMBER_2_FILL"/>
</g>

<g transform="matrix( 0.690826416015625, 0, 0, 0.690826416015625, 358.85,605.2) ">
<use xlink:href="#Layer0_9_MEMBER_0_MEMBER_0_FILL"/>
</g>

<g transform="matrix( 0.690826416015625, 0, 0, 0.690826416015625, 358.85,605.2) ">
<use xlink:href="#Layer0_9_MEMBER_0_MEMBER_1_FILL"/>
</g>

<g transform="matrix( 0.690826416015625, 0, 0, 0.690826416015625, 358.85,605.2) ">
<use xlink:href="#Layer0_9_MEMBER_0_MEMBER_2_FILL"/>
</g>

<g transform="matrix( 0.690887451171875, 0, 0, 0.690887451171875, -181.15,833.55) ">
<use xlink:href="#Layer0_10_MEMBER_0_MEMBER_0_FILL"/>
</g>

<g transform="matrix( 0.690887451171875, 0, 0, 0.690887451171875, -181.15,833.55) ">
<use xlink:href="#Layer0_10_MEMBER_0_MEMBER_1_FILL"/>
</g>

<g transform="matrix( 0.690887451171875, 0, 0, 0.690887451171875, -181.15,833.55) ">
<use xlink:href="#Layer0_10_MEMBER_0_MEMBER_2_FILL"/>
</g>

<g transform="matrix( 0.69085693359375, 0, 0, 0.69085693359375, 168.85,833.55) ">
<use xlink:href="#Layer0_11_MEMBER_0_MEMBER_0_FILL"/>
</g>

<g transform="matrix( 0.69085693359375, 0, 0, 0.69085693359375, 168.85,833.55) ">
<use xlink:href="#Layer0_11_MEMBER_0_MEMBER_1_FILL"/>
</g>

<g transform="matrix( 0.69085693359375, 0, 0, 0.69085693359375, 168.85,833.55) ">
<use xlink:href="#Layer0_11_MEMBER_0_MEMBER_2_FILL"/>
</g>

<g transform="matrix( 0.690826416015625, 0, 0, 0.690826416015625, 518.85,833.55) ">
<use xlink:href="#Layer0_12_MEMBER_0_MEMBER_0_FILL"/>
</g>

<g transform="matrix( 0.690826416015625, 0, 0, 0.690826416015625, 518.85,833.55) ">
<use xlink:href="#Layer0_12_MEMBER_0_MEMBER_1_FILL"/>
</g>

<g transform="matrix( 0.690826416015625, 0, 0, 0.690826416015625, 518.85,833.55) ">
<use xlink:href="#Layer0_12_MEMBER_0_MEMBER_2_FILL"/>
</g>

<g transform="matrix( 0.690826416015625, 0, 0, 0.690826416015625, 8.85,1053.55) ">
<use xlink:href="#Layer0_13_MEMBER_0_MEMBER_0_FILL"/>
</g>

<g transform="matrix( 0.690826416015625, 0, 0, 0.690826416015625, 8.85,1053.55) ">
<use xlink:href="#Layer0_13_MEMBER_0_MEMBER_1_FILL"/>
</g>

<g transform="matrix( 0.690826416015625, 0, 0, 0.690826416015625, 8.85,1053.55) ">
<use xlink:href="#Layer0_13_MEMBER_0_MEMBER_2_FILL"/>
</g>

<g transform="matrix( 0.6907958984375, 0, 0, 0.6907958984375, 358.85,1053.55) ">
<use xlink:href="#Layer0_14_MEMBER_0_MEMBER_0_FILL"/>
</g>

<g transform="matrix( 0.6907958984375, 0, 0, 0.6907958984375, 358.85,1053.55) ">
<use xlink:href="#Layer0_14_MEMBER_0_MEMBER_1_FILL"/>
</g>

<g transform="matrix( 0.6907958984375, 0, 0, 0.6907958984375, 358.85,1053.55) ">
<use xlink:href="#Layer0_14_MEMBER_0_MEMBER_2_FILL"/>
</g>
</svg>
