
<svg xmlns="http://www.w3.org/2000/svg" version="1.1" xmlns:xlink="http://www.w3.org/1999/xlink" preserveAspectRatio="none" x="0px" y="0px" width="720px" height="802px" viewBox="0 0 720 802">
<defs>
<g id="Sembol_2_0_Layer0_0_FILL">
<path fill="#8EBED7" stroke="none" d="
M 580 50
Q 577.05 1.9 530 0
L 50 0
Q 7.3 3.05 0 50
L 0 910 41.3 910.05 41.3 110 538.7 110 538.7 910 580 910 580 50
M 343.95 47.25
Q 344.35 47.25 344.7 47.25 347.95 47.25 350.25 48.4 352.55 49.5 352.55 51.1 352.55 52.75 350.25 53.85 347.95 55 344.7 55 344.35 55 343.95 55
L 224.9 54.95
Q 222.1 54.85 220 53.85 217.75 52.7 217.75 51.1 217.75 49.5 220 48.35 222.1 47.35 224.9 47.25
L 343.95 47.25
M 165 50
Q 165 52.05 163.5 53.5 162.05 55 160 55 157.95 55 156.45 53.5 155 52.05 155 50 155 47.95 156.45 46.45 157.95 45 160 45 162.05 45 163.5 46.45 165 47.95 165 50
M 130 40
Q 134.15 40 137.05 42.9 140 45.85 140 50 140 54.15 137.05 57.05 134.15 60 130 60 125.85 60 122.9 57.05 120 54.15 120 50 120 45.85 122.9 42.9 125.85 40 130 40 Z"/>

<path fill="#5F7E8F" stroke="none" d="
M 137.05 42.9
Q 134.15 40 130 40 125.85 40 122.9 42.9 120 45.85 120 50 120 54.15 122.9 57.05 125.85 60 130 60 134.15 60 137.05 57.05 140 54.15 140 50 140 45.85 137.05 42.9
M 163.5 53.5
Q 165 52.05 165 50 165 47.95 163.5 46.45 162.05 45 160 45 157.95 45 156.45 46.45 155 47.95 155 50 155 52.05 156.45 53.5 157.95 55 160 55 162.05 55 163.5 53.5
M 344.7 47.25
Q 344.35 47.25 343.95 47.25
L 224.9 47.25
Q 222.1 47.35 220 48.35 217.75 49.5 217.75 51.1 217.75 52.7 220 53.85 222.1 54.85 224.9 54.95
L 343.95 55
Q 344.35 55 344.7 55 347.95 55 350.25 53.85 352.55 52.75 352.55 51.1 352.55 49.5 350.25 48.4 347.95 47.25 344.7 47.25 Z"/>
</g>

<g id="Sembol_1_0_Layer0_0_FILL">
<path fill="#83AFC6" stroke="none" d="
M 30 340
L 30 380 70 380 70 340 30 340
M 350 30
L 350 70 390 70 390 30 350 30 Z"/>
</g>

<path id="Sembol_2_0_Layer0_0_1_STROKES" stroke="#83AFC6" stroke-width="10" stroke-linejoin="miter" stroke-linecap="butt" stroke-miterlimit="3" fill="none" d="
M 353.6 277.25
L 440.85 277.25
Q 454 277.25 454 290.4
L 454 368.7
M 119 377.9
L 119 290.4
Q 119 277.25 132.1 277.25
L 219.1 277.25
M 205.9 612.25
L 132.1 612.25
Q 119 612.25 119 599.15
L 119 530.9
M 454 525.6
L 454 599.15
Q 454 612.25 440.85 612.25
L 374.7 612.25"/>

<path id="Sembol_1_0_Layer0_0_1_STROKES" stroke="#83AFC6" stroke-width="12" stroke-linejoin="miter" stroke-linecap="butt" stroke-miterlimit="3" fill="none" d="
M 350 30
L 390 30 390 70 350 70 350 30 Z
M 30 30
L 70 30 70 70 30 70 30 30 Z
M 30 340
L 70 340 70 380 30 380 30 340 Z"/>

<path id="Sembol_1_0_Layer0_0_2_STROKES" stroke="#83AFC6" stroke-width="20" stroke-linejoin="miter" stroke-linecap="butt" stroke-miterlimit="3" fill="none" d="
M 320 0
L 420 0 420 100 320 100 320 0 Z
M 370 220
L 370 300 370 380
M 0 280
L 0 130 130 130 130 0 290 0 290 130 420 130 420 410 130 410 130 280 0 280 Z
M 150 40
L 250 40 250 110 150 110
M 0 0
L 100 0 100 100 0 100 0 0 Z
M 0 310
L 100 310 100 410 0 410 0 310 Z
M 40 230
L 180 230 180 370
M 310 230
L 240 230 240 365.25 310 365.25
M 40 180
L 360 180
M 290 300
L 370 300"/>
</defs>

<g transform="matrix( 1, 0, 0, 1, 66.05,22.75) ">
<g transform="matrix( 1, 0, 0, 1, 0,0) ">
<use xlink:href="#Sembol_2_0_Layer0_0_FILL"/>

<use xlink:href="#Sembol_2_0_Layer0_0_1_STROKES"/>
</g>

<g transform="matrix( 0.5767364501953125, 0, 0, 0.5767364501953125, 163.25,329.8) ">
<g transform="matrix( 1, 0, 0, 1, 0,0) ">
<use xlink:href="#Sembol_1_0_Layer0_0_FILL"/>

<use xlink:href="#Sembol_1_0_Layer0_0_1_STROKES"/>

<use xlink:href="#Sembol_1_0_Layer0_0_2_STROKES"/>
</g>
</g>
</g>
</svg>
